<svg xmlns="http://www.w3.org/2000/svg" xmlns:xlink="http://www.w3.org/1999/xlink" width="76.1" height="76.1" viewBox="0 0 76.1 76.1">
  <defs>
    <linearGradient id="linear-gradient" x1="0.5" y1="0.008" x2="0.5" y2="0.998" gradientUnits="objectBoundingBox">
      <stop offset="0" stop-color="#e09b3d"/>
      <stop offset="0.3" stop-color="#c74c4d"/>
      <stop offset="0.6" stop-color="#c21975"/>
      <stop offset="1" stop-color="#7024c4"/>
    </linearGradient>
    <linearGradient id="linear-gradient-2" y1="-0.451" y2="1.462" xlink:href="#linear-gradient"/>
    <linearGradient id="linear-gradient-3" y1="-1.396" y2="6.586" xlink:href="#linear-gradient"/>
  </defs>
  <g id="Group_1612" data-name="Group 1612" transform="translate(-1075.95 -6978.5)">
    <circle id="Oval-1-Copy-6" cx="37.55" cy="37.55" r="37.55" transform="translate(1076.45 6979)" fill="#f5f5f5" stroke="#f1efef" stroke-width="1"/>
    <path id="XMLID_17_" d="M33.444,0H14.191A14.207,14.207,0,0,0,0,14.191V33.444A14.207,14.207,0,0,0,14.191,47.635H33.444A14.207,14.207,0,0,0,47.635,33.444V14.191A14.207,14.207,0,0,0,33.444,0Zm9.4,33.444a9.4,9.4,0,0,1-9.4,9.4H14.191a9.4,9.4,0,0,1-9.4-9.4V14.191a9.4,9.4,0,0,1,9.4-9.4H33.444a9.4,9.4,0,0,1,9.4,9.4V33.444Z" transform="translate(1090.397 6992.947)" fill="url(#linear-gradient)"/>
    <path id="XMLID_81_" d="M145.32,133a12.32,12.32,0,1,0,12.32,12.32A12.334,12.334,0,0,0,145.32,133Zm0,19.848a7.528,7.528,0,1,1,7.528-7.528A7.528,7.528,0,0,1,145.32,152.848Z" transform="translate(968.895 6871.444)" fill="url(#linear-gradient-2)"/>
    <circle id="XMLID_83_" cx="2.952" cy="2.952" r="2.952" transform="translate(1123.606 7001.585)" fill="url(#linear-gradient-3)"/>
  </g>
</svg>
