<svg xmlns="http://www.w3.org/2000/svg" width="70" height="70" viewBox="0 0 70 70">
  <g id="Group_1613" data-name="Group 1613" transform="translate(-967.45 -6978)">
    <circle id="Oval-1-Copy-5" cx="35" cy="35" r="35" transform="translate(967.45 6978)" fill="#0976b4"/>
    <path id="Fill-182" d="M21.365,25.967a4.185,4.185,0,0,0,4.363-3.981A4.187,4.187,0,0,0,21.365,18,4.187,4.187,0,0,0,17,21.986a4.185,4.185,0,0,0,4.365,3.981" transform="translate(967.45 6978)" fill="#fff" fill-rule="evenodd"/>
    <path id="Fill-183" d="M18,51.578h7.828V29H18Z" transform="translate(967.45 6978)" fill="#fff" fill-rule="evenodd"/>
    <path id="Fill-184" d="M36.815,39.02c0-2.589,1.225-5.121,4.154-5.121s3.649,2.532,3.649,5.059V51.289h7.793V38.454C52.412,29.537,47.141,28,43.9,28s-5.027,1.1-7.083,3.751v-3.04H29V51.289h7.815Z" transform="translate(967.45 6978)" fill="#fff" fill-rule="evenodd"/>
  </g>
</svg>
